<svg width="43" height="28" viewBox="0 0 43 28" fill="none" xmlns="http://www.w3.org/2000/svg">
  <g clip-path="url(#clip0)">
    <path d="M9.6092 8.08398H16.1984V19.9385C16.1984 21.2424 16.087 22.3092 15.7791 23.3464C14.7148 26.9331 11.5072 28.2962 8.09921 28.2962C4.69123 28.2962 1.4836 26.9331 0.419279 23.3464C0.111417 22.3102 0 21.2434 0 19.9395V8.08398H4.39216V19.6866C4.39216 20.8127 4.48012 21.6424 4.78212 22.3122C5.48287 23.865 6.79055 24.3184 8.11876 24.3184C9.38539 24.3184 10.7136 23.865 11.4143 22.3122C11.7163 21.6424 11.8043 20.8127 11.8043 19.6866V12.1142H9.6092V8.08398ZM28.1972 8.08398V12.1142H33.4133V27.9999H37.782V12.1152H42.998V8.08497L28.1972 8.08398ZM18.3965 12.1152H20.5925V23.9697H18.3965V27.9999H27.0997V23.9697H24.9026V12.1152H27.0987V8.08497H18.3955L18.3965 12.1152Z" fill="white"/>
    <path d="M43 0H0V4.03415H43V0Z" fill="#0050FF"/>
  </g>
  <defs>
    <clipPath id="clip0">
      <rect width="43" height="28" fill="white"/>
    </clipPath>
  </defs>
</svg>
